<svg id="레이어_1" data-name="레이어 1" xmlns="http://www.w3.org/2000/svg" xmlns:xlink="http://www.w3.org/1999/xlink" viewBox="0 0 603.14095 114.90392"><defs><style>.cls-1,.cls-4{fill:none;}.cls-2,.cls-3{fill:#f3efe7;}.cls-3{stroke:#f3efe7;stroke-miterlimit:10;}.cls-4{stroke-width:2px;stroke:url(#새_패턴_견본_1);}</style><pattern id="새_패턴_견본_1" data-name="새 패턴 견본 1" width="29.34783" height="16.82609" patternUnits="userSpaceOnUse" viewBox="0 0 29.348 16.826"><rect class="cls-1" width="29.34783" height="16.82609"/><rect class="cls-2" width="29.34783" height="16.82609"/></pattern></defs><path class="cls-2" d="M317.57845,285.49449c-6.4598.69371-7.02217,1.25607-7.71588,7.71587-.69371-6.4598-1.25607-7.02216-7.71587-7.71587,6.4598-.69371,7.02216-1.25607,7.71587-7.71588C310.55628,284.23842,311.11865,284.80078,317.57845,285.49449ZM485.934,274.53665c-.69371,6.4598-1.25607,7.02216-7.71588,7.71587,6.45981.69371,7.02217,1.25607,7.71588,7.71588.69371-6.45981,1.25607-7.02217,7.71588-7.71588C487.19,281.55881,486.62766,280.99645,485.934,274.53665Z" transform="translate(-108.57603 -226.73577)"/><path class="cls-3" d="M177.1085,340.161H109.576V338.8841h1.674c6.51127-.47871,9.48792-5.42691,9.48792-10.69367V243.27815c0-6.06491-3.53464-10.69367-11.1619-10.69367v-1.27687h33.85906v1.27687h-.37234c-6.88362,0-10.6039,4.788-10.6039,10.37423V338.8841h29.95208c10.79059,0,13.95289-20.27064,15.06887-26.33554h1.48832Z" transform="translate(-108.57603 -226.73577)"/><path class="cls-3" d="M197.56748,243.43832c0-6.0658-3.53464-10.69457-11.16293-10.69457v-1.43614h33.859v1.43614c-7.06926,0-10.9752,4.46949-10.9752,10.37513V309.5161c0,10.37423,7.25492,20.58919,17.67317,25.69667a38.0136,38.0136,0,0,0,16.37258,3.67133c20.64981,0,33.48568-13.24741,34.23036-30.16615v-65.4398a11.40649,11.40649,0,0,0-2.232-6.86306c-2.232-2.87318-5.024-3.67134-8.92993-3.67134v-1.43614h23.81315v1.43614c-3.72132,0-6.698.79816-8.92993,3.67134-2.04735,2.55374-2.232,5.58619-2.232,8.61865V306.004a44.92321,44.92321,0,0,1-1.48936,13.08814c-3.53464,10.37512-12.83587,18.03634-24.92913,20.27064a83.877,83.877,0,0,1-12.46457.95743,133.3626,133.3626,0,0,1-13.39593-.95743c-6.32459-.63888-12.46353-2.39447-15.81251-4.9482a28.82935,28.82935,0,0,1-13.39489-24.73924Z" transform="translate(-108.57603 -226.73577)"/><path class="cls-3" d="M306.39335,236.17573a9.357,9.357,0,0,0-7.06927-3.51206l-.18669-.15927h-1.48728v-1.27687h20.64981l43.905,92.73277c12.46457-30.96431,24.74452-61.76846,37.20908-92.73277h22.69717v1.27687c-7.06927,0-10.97728,4.62876-10.97728,10.37423v85.391a9.4436,9.4436,0,0,0,2.04735,6.22508c1.674,2.55374,4.46392,3.83061,8.18525,3.98988h.74468v1.27687H388.25208v-1.27687h1.674c3.16126-.31944,5.57991-1.43614,7.256-3.67133a11.75227,11.75227,0,0,0,2.232-6.86307v-91.4559l-36.09309,89.85959-5.3953,13.40758H356.067V339.442l-45.7677-96.72266A41.86851,41.86851,0,0,0,306.39335,236.17573Zm14.14741,102.30221c-3.723-.1514-6.34223-1.42857-8.20374-3.98277a11.54146,11.54146,0,0,1-2.03472-5.58467V315.64157h-1.66678v13.74521a11.25643,11.25643,0,0,1-2.25112,5.433c-1.4719,2.22959-3.89623,3.35522-7.25132,3.65816h-1.49357v1.27717h23.63726v-1.27717Z" transform="translate(-108.57603 -226.73577)"/><path class="cls-3" d="M447.96334,328.19043a13.648,13.648,0,0,0-.93137,4.14916c0,3.83061,2.97664,5.90563,9.11662,6.22507v1.27687h-26.6031v-1.27687c6.32458,0,12.65125-2.87317,15.4412-8.45937,3.53464-8.29921,39.441-92.09389,39.441-93.37076-2.04735-2.71391-6.14-4.30933-9.67461-4.46949v-1.27687h31.4404V232.265c-5.7666,0-8.00063,1.11759-8.00063,3.67133a3.81069,3.81069,0,0,0,.18668,1.43615L532.054,324.67837l1.116,3.19262a5.68856,5.68856,0,0,1,.18462,1.75559c0,4.788-3.71925,8.77881-8.92993,10.05568a10.67589,10.67589,0,0,1-3.16126.31855,13.584,13.584,0,0,1-9.48792-3.67045c-10.04591-10.85383-20.4652-22.34566-30.6978-33.35877-3.16126-3.51117-10.04592-11.17239-16.37051-11.17239-.558,0-.93136.16017-1.30267.16017C458.19594,304.08918,452.98526,316.219,447.96334,328.19043Zm15.9992-37.98754c.3713,0,.74467-.15927,1.30267-.15927,6.1379,0,12.46456,6.38434,15.81251,10.05568,4.09262,4.4686,9.11661,9.73624,13.39593,14.36412,6.51128,7.1825,12.09119,12.92886,14.50984,15.802l3.53463,3.67044c2.60534,3.03245,5.024,4.46949,6.88466,4.46949,1.48728,0,2.60326-1.1176,2.60326-3.19262a13.86584,13.86584,0,0,0-1.116-4.62876c-.3713-.95743-.7426-2.075-1.30059-3.3519-11.164-29.04856-21.76788-59.374-33.86114-88.104l-21.39449,50.59608Z" transform="translate(-108.57603 -226.73577)"/><path class="cls-3" d="M563.67283,328.66915c0,5.426,3.72132,10.21495,10.6039,10.21495h.37338V340.161H540.79105V338.8841h.3713c7.256,0,10.6039-4.9482,10.79059-10.53439V243.27815c0-5.90563-3.53463-10.69367-11.16189-10.69367v-1.27687h41.115a49.86531,49.86531,0,0,1,12.09119,1.43614c14.6986,3.83061,25.4892,14.365,25.4892,26.97443,0,7.34178-3.72133,14.04557-9.67461,18.99288-9.11662,7.82139-17.48856,7.18251-28.83714,9.41681-5.20861.95832-10.04592,3.03334-12.09119,7.50194a25.53169,25.53169,0,0,1,9.67253-2.713h1.86067c6.32666,0,12.65125,2.2343,15.99919,5.90564,6.14,6.86306,10.41929,15.96042,16.18589,23.78181,3.53464,5.10748,10.97728,16.43914,19.34922,16.43914.558,0,.92929-.15928,1.48728-.15928V340.161a36.85548,36.85548,0,0,1-5.76659.47872c-13.39594,0-21.76788-8.13993-28.65046-18.51506-4.65061-7.34178-9.6746-14.52428-14.51191-21.86606-2.04528-3.03245-5.7666-4.788-10.04591-4.788a16.88371,16.88371,0,0,0-6.698,1.43615c.37338-3.51117,2.60534-5.74547,5.76867-7.34178,6.13791-3.03245,13.39386-3.83061,19.34715-7.34178,8.37194-4.78893,13.95392-13.08813,13.95392-22.50494,0-14.84372-13.95392-26.97443-31.0691-26.97443H563.67283Z" transform="translate(-108.57603 -226.73577)"/><path class="cls-3" d="M663.7565,266.10253v18.99288c0,9.73624-.18462,19.47249-.18462,29.20873,0,4.788,0,9.73624.18462,14.52428.18668,5.26676,3.72132,9.577,10.04591,10.05568h20.4652c6.698-.47871,11.34858-8.77881,14.51191-26.33554h1.48729l-1.674,26.33554V340.161H640.87472V338.8841h.3713c8.74324,0,10.79059-6.38434,10.79059-12.92886-.18669,0-.18669-8.93809-.18669-21.0679V265.14421c.18669-7.97977.18669-14.84283.18669-19.15215v-3.8315a11.70028,11.70028,0,0,0-2.232-5.90475,10.09609,10.09609,0,0,0-7.256-3.67133h-1.674v-1.27687h28.09246c17.67317-.15928,36.649-.47872,39.81234-2.713.558,10.0548,1.116,20.11048,1.86066,30.16616h-1.48935c-1.116-6.0658-4.27932-25.69756-15.44121-26.17627H663.7565v31.92174" transform="translate(-108.57603 -226.73577)"/><path class="cls-2" d="M663.7565,266.10253v18.99288c0,9.73624-.18462,19.47249-.18462,29.20873,0,4.788,0,9.73624.18462,14.52428.18668,5.26676,3.72132,9.577,10.04591,10.05568h20.4652c6.698-.47871,11.34858-8.77881,14.51191-26.33554h1.48729l-1.674,26.33554V340.161H640.87472V338.8841h.3713c8.74324,0,10.79059-6.38434,10.79059-12.92886-.18669,0-.18669-8.93809-.18669-21.0679V265.14421c.18669-7.97977.18669-14.84283.18669-19.15215v-3.8315a11.70028,11.70028,0,0,0-2.232-5.90475,10.09609,10.09609,0,0,0-7.256-3.67133h-1.674v-1.27687h28.09246c17.67317-.15928,36.649-.47872,39.81234-2.713.558,10.0548,1.116,20.11048,1.86066,30.16616h-1.48935c-1.116-6.0658-4.27932-25.69756-15.44121-26.17627H663.7565v33.518" transform="translate(-108.57603 -226.73577)"/><path class="cls-3" d="M687.87654,274.16223h-.571c-3.29945,10.6597-11.54808,9.994-11.54808,9.994v.424s8.24863-.64664,11.54808,10.013h.571l-.25381-10.21555Z" transform="translate(-108.57603 -226.73577)"/><path class="cls-2" d="M177.1085,340.161H109.576V338.8841h1.674c6.51127-.47871,9.48792-5.42691,9.48792-10.69367V243.27815c0-6.06491-3.53464-10.69367-11.1619-10.69367v-1.27687h33.85906v1.27687h-.37234c-6.88362,0-10.6039,4.788-10.6039,10.37423V338.8841h29.95208c10.79059,0,13.95289-20.27064,15.06887-26.33554h1.48832Z" transform="translate(-108.57603 -226.73577)"/><path class="cls-2" d="M197.56748,243.43832c0-6.0658-3.53464-10.69457-11.16293-10.69457v-1.43614h33.859v1.43614c-7.06926,0-10.9752,4.46949-10.9752,10.37513V309.5161c0,10.37423,7.25492,20.58919,17.67317,25.69667a38.0136,38.0136,0,0,0,16.37258,3.67133c20.64981,0,33.48568-13.24741,34.23036-30.16615v-65.4398a11.40649,11.40649,0,0,0-2.232-6.86306c-2.232-2.87318-5.024-3.67134-8.92993-3.67134v-1.43614h23.81315v1.43614c-3.72132,0-6.698.79816-8.92993,3.67134-2.04735,2.55374-2.232,5.58619-2.232,8.61865V306.004a44.92321,44.92321,0,0,1-1.48936,13.08814c-3.53464,10.37512-12.83587,18.03634-24.92913,20.27064a83.877,83.877,0,0,1-12.46457.95743,133.3626,133.3626,0,0,1-13.39593-.95743c-6.32459-.63888-12.46353-2.39447-15.81251-4.9482a28.82935,28.82935,0,0,1-13.39489-24.73924Z" transform="translate(-108.57603 -226.73577)"/><path class="cls-2" d="M306.39335,236.17573a9.357,9.357,0,0,0-7.06927-3.51206l-.18669-.15927h-1.48728v-1.27687h20.64981l43.905,92.73277c12.46457-30.96431,24.74452-61.76846,37.20908-92.73277h22.69717v1.27687c-7.06927,0-10.97728,4.62876-10.97728,10.37423v85.391a9.4436,9.4436,0,0,0,2.04735,6.22508c1.674,2.55374,4.46392,3.83061,8.18525,3.98988h.74468v1.27687H388.25208v-1.27687h1.674c3.16126-.31944,5.57991-1.43614,7.256-3.67133a11.75227,11.75227,0,0,0,2.232-6.86307v-91.4559l-36.09309,89.85959-5.3953,13.40758H356.067V339.442l-45.7677-96.72266A41.86851,41.86851,0,0,0,306.39335,236.17573Zm14.14741,102.30221c-3.723-.1514-6.34223-1.42857-8.20374-3.98277a11.54146,11.54146,0,0,1-2.03472-5.58467V315.64157h-1.66678v13.74521a11.25643,11.25643,0,0,1-2.25112,5.433c-1.4719,2.22959-3.89623,3.35522-7.25132,3.65816h-1.49357v1.27717h23.63726v-1.27717Z" transform="translate(-108.57603 -226.73577)"/><path class="cls-2" d="M447.96334,328.19043a13.648,13.648,0,0,0-.93137,4.14916c0,3.83061,2.97664,5.90563,9.11662,6.22507v1.27687h-26.6031v-1.27687c6.32458,0,12.65125-2.87317,15.4412-8.45937,3.53464-8.29921,39.441-92.09389,39.441-93.37076-2.04735-2.71391-6.14-4.30933-9.67461-4.46949v-1.27687h31.4404V232.265c-5.7666,0-8.00063,1.11759-8.00063,3.67133a3.81069,3.81069,0,0,0,.18668,1.43615L532.054,324.67837l1.116,3.19262a5.68856,5.68856,0,0,1,.18462,1.75559c0,4.788-3.71925,8.77881-8.92993,10.05568a10.67589,10.67589,0,0,1-3.16126.31855,13.584,13.584,0,0,1-9.48792-3.67045c-10.04591-10.85383-20.4652-22.34566-30.6978-33.35877-3.16126-3.51117-10.04592-11.17239-16.37051-11.17239-.558,0-.93136.16017-1.30267.16017C458.19594,304.08918,452.98526,316.219,447.96334,328.19043Zm15.9992-37.98754c.3713,0,.74467-.15927,1.30267-.15927,6.1379,0,12.46456,6.38434,15.81251,10.05568,4.09262,4.4686,9.11661,9.73624,13.39593,14.36412,6.51128,7.1825,12.09119,12.92886,14.50984,15.802l3.53463,3.67044c2.60534,3.03245,5.024,4.46949,6.88466,4.46949,1.48728,0,2.60326-1.1176,2.60326-3.19262a13.86584,13.86584,0,0,0-1.116-4.62876c-.3713-.95743-.7426-2.075-1.30059-3.3519-11.164-29.04856-21.76788-59.374-33.86114-88.104l-21.39449,50.59608Z" transform="translate(-108.57603 -226.73577)"/><path class="cls-2" d="M563.67283,328.66915c0,5.426,3.72132,10.21495,10.6039,10.21495h.37338V340.161H540.79105V338.8841h.3713c7.256,0,10.6039-4.9482,10.79059-10.53439V243.27815c0-5.90563-3.53463-10.69367-11.16189-10.69367v-1.27687h41.115a49.86531,49.86531,0,0,1,12.09119,1.43614c14.6986,3.83061,25.4892,14.365,25.4892,26.97443,0,7.34178-3.72133,14.04557-9.67461,18.99288-9.11662,7.82139-17.48856,7.18251-28.83714,9.41681-5.20861.95832-10.04592,3.03334-12.09119,7.50194a25.53169,25.53169,0,0,1,9.67253-2.713h1.86067c6.32666,0,12.65125,2.2343,15.99919,5.90564,6.14,6.86306,10.41929,15.96042,16.18589,23.78181,3.53464,5.10748,10.97728,16.43914,19.34922,16.43914.558,0,.92929-.15928,1.48728-.15928V340.161a36.85548,36.85548,0,0,1-5.76659.47872c-13.39594,0-21.76788-8.13993-28.65046-18.51506-4.65061-7.34178-9.6746-14.52428-14.51191-21.86606-2.04528-3.03245-5.7666-4.788-10.04591-4.788a16.88371,16.88371,0,0,0-6.698,1.43615c.37338-3.51117,2.60534-5.74547,5.76867-7.34178,6.13791-3.03245,13.39386-3.83061,19.34715-7.34178,8.37194-4.78893,13.95392-13.08813,13.95392-22.50494,0-14.84372-13.95392-26.97443-31.0691-26.97443H563.67283Z" transform="translate(-108.57603 -226.73577)"/><path class="cls-2" d="M663.7565,266.10253v18.99288c0,9.73624-.18462,19.47249-.18462,29.20873,0,4.788,0,9.73624.18462,14.52428.18668,5.26676,3.72132,9.577,10.04591,10.05568h20.4652c6.698-.47871,11.34858-8.77881,14.51191-26.33554h1.48729l-1.674,26.33554V340.161H640.87472V338.8841h.3713c8.74324,0,10.79059-6.38434,10.79059-12.92886-.18669,0-.18669-8.93809-.18669-21.0679V265.14421c.18669-7.97977.18669-14.84283.18669-19.15215v-3.8315a11.70028,11.70028,0,0,0-2.232-5.90475,10.09609,10.09609,0,0,0-7.256-3.67133h-1.674v-1.27687h28.09246c17.67317-.15928,36.649-.47872,39.81234-2.713.558,10.0548,1.116,20.11048,1.86066,30.16616h-1.48935c-1.116-6.0658-4.27932-25.69756-15.44121-26.17627H663.7565v31.92174" transform="translate(-108.57603 -226.73577)"/><path class="cls-2" d="M663.7565,266.10253v18.99288c0,9.73624-.18462,19.47249-.18462,29.20873,0,4.788,0,9.73624.18462,14.52428.18668,5.26676,3.72132,9.577,10.04591,10.05568h20.4652c6.698-.47871,11.34858-8.77881,14.51191-26.33554h1.48729l-1.674,26.33554V340.161H640.87472V338.8841h.3713c8.74324,0,10.79059-6.38434,10.79059-12.92886-.18669,0-.18669-8.93809-.18669-21.0679V265.14421c.18669-7.97977.18669-14.84283.18669-19.15215v-3.8315a11.70028,11.70028,0,0,0-2.232-5.90475,10.09609,10.09609,0,0,0-7.256-3.67133h-1.674v-1.27687h28.09246c17.67317-.15928,36.649-.47872,39.81234-2.713.558,10.0548,1.116,20.11048,1.86066,30.16616h-1.48935c-1.116-6.0658-4.27932-25.69756-15.44121-26.17627H663.7565v33.518" transform="translate(-108.57603 -226.73577)"/><path class="cls-2" d="M687.87654,274.16223h-.571c-3.29945,10.6597-11.54808,9.994-11.54808,9.994v.424s8.24863-.64664,11.54808,10.013h.571l-.25381-10.21555Z" transform="translate(-108.57603 -226.73577)"/><path class="cls-4" d="M177.1085,340.161H109.576V338.8841h1.674c6.51127-.47871,9.48792-5.42691,9.48792-10.69367V243.27815c0-6.06491-3.53464-10.69367-11.1619-10.69367v-1.27687h33.85906v1.27687h-.37234c-6.88362,0-10.6039,4.788-10.6039,10.37423V338.8841h29.95208c10.79059,0,13.95289-20.27064,15.06887-26.33554h1.48832Z" transform="translate(-108.57603 -226.73577)"/><path class="cls-4" d="M197.56748,243.43832c0-6.0658-3.53464-10.69457-11.16293-10.69457v-1.43614h33.859v1.43614c-7.06926,0-10.9752,4.46949-10.9752,10.37513V309.5161c0,10.37423,7.25492,20.58919,17.67317,25.69667a38.0136,38.0136,0,0,0,16.37258,3.67133c20.64981,0,33.48568-13.24741,34.23036-30.16615v-65.4398a11.40649,11.40649,0,0,0-2.232-6.86306c-2.232-2.87318-5.024-3.67134-8.92993-3.67134v-1.43614h23.81315v1.43614c-3.72132,0-6.698.79816-8.92993,3.67134-2.04735,2.55374-2.232,5.58619-2.232,8.61865V306.004a44.92321,44.92321,0,0,1-1.48936,13.08814c-3.53464,10.37512-12.83587,18.03634-24.92913,20.27064a83.877,83.877,0,0,1-12.46457.95743,133.3626,133.3626,0,0,1-13.39593-.95743c-6.32459-.63888-12.46353-2.39447-15.81251-4.9482a28.82935,28.82935,0,0,1-13.39489-24.73924Z" transform="translate(-108.57603 -226.73577)"/><path class="cls-4" d="M306.39335,236.17573a9.357,9.357,0,0,0-7.06927-3.51206l-.18669-.15927h-1.48728v-1.27687h20.64981l43.905,92.73277c12.46457-30.96431,24.74452-61.76846,37.20908-92.73277h22.69717v1.27687c-7.06927,0-10.97728,4.62876-10.97728,10.37423v85.391a9.4436,9.4436,0,0,0,2.04735,6.22508c1.674,2.55374,4.46392,3.83061,8.18525,3.98988h.74468v1.27687H388.25208v-1.27687h1.674c3.16126-.31944,5.57991-1.43614,7.256-3.67133a11.75227,11.75227,0,0,0,2.232-6.86307v-91.4559l-36.09309,89.85959-5.3953,13.40758H356.067V339.442l-45.7677-96.72266A41.86851,41.86851,0,0,0,306.39335,236.17573Zm14.14741,102.30221c-3.723-.1514-6.34223-1.42857-8.20374-3.98277a11.54146,11.54146,0,0,1-2.03472-5.58467V315.64157h-1.66678v13.74521a11.25643,11.25643,0,0,1-2.25112,5.433c-1.4719,2.22959-3.89623,3.35522-7.25132,3.65816h-1.49357v1.27717h23.63726v-1.27717Z" transform="translate(-108.57603 -226.73577)"/><path class="cls-4" d="M447.96334,328.19043a13.648,13.648,0,0,0-.93137,4.14916c0,3.83061,2.97664,5.90563,9.11662,6.22507v1.27687h-26.6031v-1.27687c6.32458,0,12.65125-2.87317,15.4412-8.45937,3.53464-8.29921,39.441-92.09389,39.441-93.37076-2.04735-2.71391-6.14-4.30933-9.67461-4.46949v-1.27687h31.4404V232.265c-5.7666,0-8.00063,1.11759-8.00063,3.67133a3.81069,3.81069,0,0,0,.18668,1.43615L532.054,324.67837l1.116,3.19262a5.68856,5.68856,0,0,1,.18462,1.75559c0,4.788-3.71925,8.77881-8.92993,10.05568a10.67589,10.67589,0,0,1-3.16126.31855,13.584,13.584,0,0,1-9.48792-3.67045c-10.04591-10.85383-20.4652-22.34566-30.6978-33.35877-3.16126-3.51117-10.04592-11.17239-16.37051-11.17239-.558,0-.93136.16017-1.30267.16017C458.19594,304.08918,452.98526,316.219,447.96334,328.19043Zm15.9992-37.98754c.3713,0,.74467-.15927,1.30267-.15927,6.1379,0,12.46456,6.38434,15.81251,10.05568,4.09262,4.4686,9.11661,9.73624,13.39593,14.36412,6.51128,7.1825,12.09119,12.92886,14.50984,15.802l3.53463,3.67044c2.60534,3.03245,5.024,4.46949,6.88466,4.46949,1.48728,0,2.60326-1.1176,2.60326-3.19262a13.86584,13.86584,0,0,0-1.116-4.62876c-.3713-.95743-.7426-2.075-1.30059-3.3519-11.164-29.04856-21.76788-59.374-33.86114-88.104l-21.39449,50.59608Z" transform="translate(-108.57603 -226.73577)"/><path class="cls-4" d="M563.67283,328.66915c0,5.426,3.72132,10.21495,10.6039,10.21495h.37338V340.161H540.79105V338.8841h.3713c7.256,0,10.6039-4.9482,10.79059-10.53439V243.27815c0-5.90563-3.53463-10.69367-11.16189-10.69367v-1.27687h41.115a49.86531,49.86531,0,0,1,12.09119,1.43614c14.6986,3.83061,25.4892,14.365,25.4892,26.97443,0,7.34178-3.72133,14.04557-9.67461,18.99288-9.11662,7.82139-17.48856,7.18251-28.83714,9.41681-5.20861.95832-10.04592,3.03334-12.09119,7.50194a25.53169,25.53169,0,0,1,9.67253-2.713h1.86067c6.32666,0,12.65125,2.2343,15.99919,5.90564,6.14,6.86306,10.41929,15.96042,16.18589,23.78181,3.53464,5.10748,10.97728,16.43914,19.34922,16.43914.558,0,.92929-.15928,1.48728-.15928V340.161a36.85548,36.85548,0,0,1-5.76659.47872c-13.39594,0-21.76788-8.13993-28.65046-18.51506-4.65061-7.34178-9.6746-14.52428-14.51191-21.86606-2.04528-3.03245-5.7666-4.788-10.04591-4.788a16.88371,16.88371,0,0,0-6.698,1.43615c.37338-3.51117,2.60534-5.74547,5.76867-7.34178,6.13791-3.03245,13.39386-3.83061,19.34715-7.34178,8.37194-4.78893,13.95392-13.08813,13.95392-22.50494,0-14.84372-13.95392-26.97443-31.0691-26.97443H563.67283Z" transform="translate(-108.57603 -226.73577)"/><path class="cls-4" d="M663.7565,266.10253v18.99288c0,9.73624-.18462,19.47249-.18462,29.20873,0,4.788,0,9.73624.18462,14.52428.18668,5.26676,3.72132,9.577,10.04591,10.05568h20.4652c6.698-.47871,11.34858-8.77881,14.51191-26.33554h1.48729l-1.674,26.33554V340.161H640.87472V338.8841h.3713c8.74324,0,10.79059-6.38434,10.79059-12.92886-.18669,0-.18669-8.93809-.18669-21.0679V265.14421c.18669-7.97977.18669-14.84283.18669-19.15215v-3.8315a11.70028,11.70028,0,0,0-2.232-5.90475,10.09609,10.09609,0,0,0-7.256-3.67133h-1.674v-1.27687h28.09246c17.67317-.15928,36.649-.47872,39.81234-2.713.558,10.0548,1.116,20.11048,1.86066,30.16616h-1.48935c-1.116-6.0658-4.27932-25.69756-15.44121-26.17627H663.7565v31.92174" transform="translate(-108.57603 -226.73577)"/><path class="cls-4" d="M663.7565,266.10253v18.99288c0,9.73624-.18462,19.47249-.18462,29.20873,0,4.788,0,9.73624.18462,14.52428.18668,5.26676,3.72132,9.577,10.04591,10.05568h20.4652c6.698-.47871,11.34858-8.77881,14.51191-26.33554h1.48729l-1.674,26.33554V340.161H640.87472V338.8841h.3713c8.74324,0,10.79059-6.38434,10.79059-12.92886-.18669,0-.18669-8.93809-.18669-21.0679V265.14421c.18669-7.97977.18669-14.84283.18669-19.15215v-3.8315a11.70028,11.70028,0,0,0-2.232-5.90475,10.09609,10.09609,0,0,0-7.256-3.67133h-1.674v-1.27687h28.09246c17.67317-.15928,36.649-.47872,39.81234-2.713.558,10.0548,1.116,20.11048,1.86066,30.16616h-1.48935c-1.116-6.0658-4.27932-25.69756-15.44121-26.17627H663.7565v33.518" transform="translate(-108.57603 -226.73577)"/><path class="cls-4" d="M687.87654,274.16223h-.571c-3.29945,10.6597-11.54808,9.994-11.54808,9.994v.424s8.24863-.64664,11.54808,10.013h.571l-.25381-10.21555Z" transform="translate(-108.57603 -226.73577)"/></svg>