<svg id="레이어_1" data-name="레이어 1" xmlns="http://www.w3.org/2000/svg" xmlns:xlink="http://www.w3.org/1999/xlink" viewBox="0 0 148.47689 98.41818"><defs><style>.cls-1,.cls-3{fill:none;}.cls-2{fill:#f3efe7;}.cls-3{stroke:url(#새_패턴_견본_1);}</style><pattern id="새_패턴_견본_1" data-name="새 패턴 견본 1" width="29.34783" height="16.82609" patternUnits="userSpaceOnUse" viewBox="0 0 29.348 16.826"><rect class="cls-1" width="29.34783" height="16.82609"/><rect class="cls-2" width="29.34783" height="16.82609"/></pattern></defs><path class="cls-2" d="M351.08181,311.89963c-3.69206.39648-4.01347.7179-4.41,4.40995-.39649-3.692-.7179-4.01347-4.41-4.40995,3.69206-.39649,4.01347-.7179,4.41-4.41C347.06834,311.18173,347.38975,311.50314,351.08181,311.89963Z" transform="translate(-341.84851 -244.0083)"/><path class="cls-2" d="M414.96138,310.20022c-3.51646.37763-3.82259.68375-4.20022,4.20022-.37763-3.51647-.68376-3.82259-4.20022-4.20022,3.51646-.37763,3.82259-.68376,4.20022-4.20022C411.13879,309.51646,411.44492,309.82259,414.96138,310.20022Z" transform="translate(-341.84851 -244.0083)"/><path class="cls-2" d="M407.46529,283.01011h-29.2747v-.45164h.72565c2.82258-.16932,4.11293-1.91952,4.11293-3.78239V248.74232c0-2.14518-1.53223-3.78238-4.83858-3.78238v-.45164h14.67759v.45164h-.16141c-2.984,0-4.59669,1.69354-4.59669,3.6694v33.92913H401.094c4.67762,0,6.04845-7.16979,6.53221-9.315h.64518Z" transform="translate(-341.84851 -244.0083)"/><path class="cls-2" d="M419.55651,257.90145c0-2.14549-1.25021-3.7827-3.94836-3.7827v-.508h11.97606v.508a3.54093,3.54093,0,0,0-3.882,3.66972v23.48492c0,3.6694,2.56609,7.28247,6.25106,9.089a13.44556,13.44556,0,0,0,5.791,1.29856c7.30391,0,11.844-4.68565,12.10739-10.66987V257.8448a4.03453,4.03453,0,0,0-.78945-2.42749,3.55158,3.55158,0,0,0-3.15855-1.29856v-.508h8.42279v.508a3.62177,3.62177,0,0,0-3.15854,1.29856,4.58521,4.58521,0,0,0-.78946,3.04845v21.5654a15.88943,15.88943,0,0,1-.52679,4.62932,11.155,11.155,0,0,1-8.81751,7.1698,29.66751,29.66751,0,0,1-4.40876.33864,47.1711,47.1711,0,0,1-4.73819-.33864,11.97466,11.97466,0,0,1-5.59294-1.7502,10.197,10.197,0,0,1-4.73782-8.75035Z" transform="translate(-341.84851 -244.0083)"/><path class="cls-2" d="M396.87731,326.54969a4.82742,4.82742,0,0,0-.32942,1.46757c0,1.3549,1.05284,2.08885,3.22457,2.20183v.45164h-9.4096v-.45164a5.97581,5.97581,0,0,0,5.4616-2.99211c1.25022-2.93545,13.95043-32.57392,13.95043-33.02555a4.74491,4.74491,0,0,0-3.42194-1.58087v-.45164h11.12058v.45164c-2.03966,0-2.82985.39529-2.82985,1.29856a1.34786,1.34786,0,0,0,.066.508l11.91077,30.88037.39472,1.12924a2.01211,2.01211,0,0,1,.0653.621,3.83124,3.83124,0,0,1-3.15855,3.55673,3.7761,3.7761,0,0,1-1.11814.11267,4.80471,4.80471,0,0,1-3.35591-1.29825c-3.55328-3.839-7.23861-7.90373-10.85792-11.79911-1.11815-1.24191-3.55327-3.95171-5.7903-3.95171-.19736,0-.32943.05665-.46076.05665C400.49662,318.025,398.65358,322.31536,396.87731,326.54969Zm5.659-13.43632c.13134,0,.2634-.05634.46076-.05634,2.171,0,4.40876,2.25817,5.59294,3.55673,1.44758,1.58056,3.22458,3.44374,4.73819,5.08064,2.30306,2.54047,4.27669,4.573,5.13218,5.58923l1.25021,1.29825a3.70888,3.70888,0,0,0,2.43513,1.58088c.526,0,.92078-.3953.92078-1.12924a4.90426,4.90426,0,0,0-.39473-1.63721c-.13133-.33865-.26266-.734-.46-1.18558-3.94874-10.27457-7.69937-21.00078-11.9768-31.16269l-7.5673,17.896Z" transform="translate(-341.84851 -244.0083)"/><path class="cls-2" d="M437.80415,337.69246a3.51226,3.51226,0,0,0,3.75064,3.61306h.13206v.45164H429.71079v-.45164h.13133a3.58655,3.58655,0,0,0,3.81667-3.726v-30.0901a3.57637,3.57637,0,0,0-3.948-3.78238v-.45164h14.54252a17.6378,17.6378,0,0,1,4.27669.508c5.199,1.3549,9.01562,5.08095,9.01562,9.54095a8.80161,8.80161,0,0,1-3.42194,6.71785c-3.22458,2.76645-6.18577,2.54047-10.1998,3.33075-1.8423.339-3.55327,1.0729-4.27669,2.65346a9.03062,9.03062,0,0,1,3.42121-.9596h.65812a7.92683,7.92683,0,0,1,5.659,2.08884c2.17173,2.42749,3.68534,5.64526,5.725,8.41171,1.25021,1.80653,3.8827,5.81458,6.84389,5.81458.19736,0,.32869-.05634.526-.05634v.45164a13.03673,13.03673,0,0,1-2.03966.16932c-4.73819,0-7.69937-2.87912-10.13376-6.54884-1.64494-2.59681-3.42195-5.13729-5.13292-7.7341a4.18509,4.18509,0,0,0-3.55327-1.69354,5.97173,5.97173,0,0,0-2.36909.508,3.267,3.267,0,0,1,2.0404-2.59682c2.171-1.07258,4.73745-1.35489,6.84315-2.59681a9.28527,9.28527,0,0,0,4.93555-7.96007c0-5.25028-4.93555-9.54095-10.98925-9.54095h-4.27743Z" transform="translate(-341.84851 -244.0083)"/><path class="cls-2" d="M345.44477,294.03943a3.30955,3.30955,0,0,0-2.50042-1.24223l-.066-.05633h-.52606v-.45164h7.30391l15.52934,32.7999c4.40875-10.95218,8.75221-21.84772,13.161-32.7999h8.02807v.45164a3.57012,3.57012,0,0,0-3.8827,3.6694v30.20308a3.34024,3.34024,0,0,0,.72415,2.20183,3.3961,3.3961,0,0,0,2.89515,1.41124h.2634v.45163H374.39848v-.45163h.59209a3.42842,3.42842,0,0,0,2.56646-1.29857,4.15679,4.15679,0,0,0,.78945-2.42749V294.1521l-12.76625,31.78364-1.90833,4.74231h-.65739v-.113l-16.18819-34.21113A14.80938,14.80938,0,0,0,345.44477,294.03943Zm5.004,36.18464a3.48592,3.48592,0,0,1-2.90169-1.40872,4.08231,4.08231,0,0,1-.71969-1.97532v-4.69327h-.58954v4.86173a3.98145,3.98145,0,0,1-.79623,1.92167,3.18314,3.18314,0,0,1-2.56482,1.29391h-.52828v.45173h8.36058v-.45173Z" transform="translate(-341.84851 -244.0083)"/><path class="cls-2" d="M473.20408,305.43561v6.71784c0,3.44374-.06529,6.88749-.06529,10.33123,0,1.69354,0,3.44374.06529,5.13729a3.58992,3.58992,0,0,0,3.55328,3.55673H483.996c2.36909-.16933,4.014-3.1051,5.13291-9.315h.52606l-.59209,9.315v.45163H465.11072v-.45163h.13133c3.09252,0,3.81667-2.25817,3.81667-4.573-.066,0-.066-3.16143-.066-7.45179V305.09665c.066-2.82248.066-5.25.066-6.77419v-1.35521a4.1384,4.1384,0,0,0-.78945-2.08853,3.571,3.571,0,0,0-2.56646-1.29856h-.59209v-.45164h9.9364c6.25106-.05633,12.96288-.16932,14.08176-.9596.19736,3.55642.39473,7.11315.65812,10.66987h-.52679c-.39472-2.14549-1.51361-9.08931-5.46161-9.25863H473.20408v11.85545Z" transform="translate(-341.84851 -244.0083)"/><path class="cls-2" d="M481.73542,308.28635h-.202c-1.167,3.77037-4.0846,3.53493-4.0846,3.53493v.15s2.91757-.22872,4.0846,3.54165h.202l-.08977-3.61327Z" transform="translate(-341.84851 -244.0083)"/><path class="cls-3" d="M407.46529,283.01011h-29.2747v-.45164h.72565c2.82258-.16932,4.11293-1.91952,4.11293-3.78239V248.74232c0-2.14518-1.53223-3.78238-4.83858-3.78238v-.45164h14.67759v.45164h-.16141c-2.984,0-4.59669,1.69354-4.59669,3.6694v33.92913H401.094c4.67762,0,6.04845-7.16979,6.53221-9.315h.64518Z" transform="translate(-341.84851 -244.0083)"/><path class="cls-3" d="M419.55651,257.90145c0-2.14549-1.25021-3.7827-3.94836-3.7827v-.508h11.97606v.508a3.54093,3.54093,0,0,0-3.882,3.66972v23.48492c0,3.6694,2.56609,7.28247,6.25106,9.089a13.44556,13.44556,0,0,0,5.791,1.29856c7.30391,0,11.844-4.68565,12.10739-10.66987V257.8448a4.03453,4.03453,0,0,0-.78945-2.42749,3.55158,3.55158,0,0,0-3.15855-1.29856v-.508h8.42279v.508a3.62177,3.62177,0,0,0-3.15854,1.29856,4.58521,4.58521,0,0,0-.78946,3.04845v21.5654a15.88943,15.88943,0,0,1-.52679,4.62932,11.155,11.155,0,0,1-8.81751,7.1698,29.66751,29.66751,0,0,1-4.40876.33864,47.1711,47.1711,0,0,1-4.73819-.33864,11.97466,11.97466,0,0,1-5.59294-1.7502,10.197,10.197,0,0,1-4.73782-8.75035Z" transform="translate(-341.84851 -244.0083)"/><path class="cls-3" d="M396.87731,326.54969a4.82742,4.82742,0,0,0-.32942,1.46757c0,1.3549,1.05284,2.08885,3.22457,2.20183v.45164h-9.4096v-.45164a5.97581,5.97581,0,0,0,5.4616-2.99211c1.25022-2.93545,13.95043-32.57392,13.95043-33.02555a4.74491,4.74491,0,0,0-3.42194-1.58087v-.45164h11.12058v.45164c-2.03966,0-2.82985.39529-2.82985,1.29856a1.34786,1.34786,0,0,0,.066.508l11.91077,30.88037.39472,1.12924a2.01211,2.01211,0,0,1,.0653.621,3.83124,3.83124,0,0,1-3.15855,3.55673,3.7761,3.7761,0,0,1-1.11814.11267,4.80471,4.80471,0,0,1-3.35591-1.29825c-3.55328-3.839-7.23861-7.90373-10.85792-11.79911-1.11815-1.24191-3.55327-3.95171-5.7903-3.95171-.19736,0-.32943.05665-.46076.05665C400.49662,318.025,398.65358,322.31536,396.87731,326.54969Zm5.659-13.43632c.13134,0,.2634-.05634.46076-.05634,2.171,0,4.40876,2.25817,5.59294,3.55673,1.44758,1.58056,3.22458,3.44374,4.73819,5.08064,2.30306,2.54047,4.27669,4.573,5.13218,5.58923l1.25021,1.29825a3.70888,3.70888,0,0,0,2.43513,1.58088c.526,0,.92078-.3953.92078-1.12924a4.90426,4.90426,0,0,0-.39473-1.63721c-.13133-.33865-.26266-.734-.46-1.18558-3.94874-10.27457-7.69937-21.00078-11.9768-31.16269l-7.5673,17.896Z" transform="translate(-341.84851 -244.0083)"/><path class="cls-3" d="M437.80415,337.69246a3.51226,3.51226,0,0,0,3.75064,3.61306h.13206v.45164H429.71079v-.45164h.13133a3.58655,3.58655,0,0,0,3.81667-3.726v-30.0901a3.57637,3.57637,0,0,0-3.948-3.78238v-.45164h14.54252a17.6378,17.6378,0,0,1,4.27669.508c5.199,1.3549,9.01562,5.08095,9.01562,9.54095a8.80161,8.80161,0,0,1-3.42194,6.71785c-3.22458,2.76645-6.18577,2.54047-10.1998,3.33075-1.8423.339-3.55327,1.0729-4.27669,2.65346a9.03062,9.03062,0,0,1,3.42121-.9596h.65812a7.92683,7.92683,0,0,1,5.659,2.08884c2.17173,2.42749,3.68534,5.64526,5.725,8.41171,1.25021,1.80653,3.8827,5.81458,6.84389,5.81458.19736,0,.32869-.05634.526-.05634v.45164a13.03673,13.03673,0,0,1-2.03966.16932c-4.73819,0-7.69937-2.87912-10.13376-6.54884-1.64494-2.59681-3.42195-5.13729-5.13292-7.7341a4.18509,4.18509,0,0,0-3.55327-1.69354,5.97173,5.97173,0,0,0-2.36909.508,3.267,3.267,0,0,1,2.0404-2.59682c2.171-1.07258,4.73745-1.35489,6.84315-2.59681a9.28527,9.28527,0,0,0,4.93555-7.96007c0-5.25028-4.93555-9.54095-10.98925-9.54095h-4.27743Z" transform="translate(-341.84851 -244.0083)"/><path class="cls-3" d="M345.44477,294.03943a3.30955,3.30955,0,0,0-2.50042-1.24223l-.066-.05633h-.52606v-.45164h7.30391l15.52934,32.7999c4.40875-10.95218,8.75221-21.84772,13.161-32.7999h8.02807v.45164a3.57012,3.57012,0,0,0-3.8827,3.6694v30.20308a3.34024,3.34024,0,0,0,.72415,2.20183,3.3961,3.3961,0,0,0,2.89515,1.41124h.2634v.45163H374.39848v-.45163h.59209a3.42842,3.42842,0,0,0,2.56646-1.29857,4.15679,4.15679,0,0,0,.78945-2.42749V294.1521l-12.76625,31.78364-1.90833,4.74231h-.65739v-.113l-16.18819-34.21113A14.80938,14.80938,0,0,0,345.44477,294.03943Zm5.004,36.18464a3.48592,3.48592,0,0,1-2.90169-1.40872,4.08231,4.08231,0,0,1-.71969-1.97532v-4.69327h-.58954v4.86173a3.98145,3.98145,0,0,1-.79623,1.92167,3.18314,3.18314,0,0,1-2.56482,1.29391h-.52828v.45173h8.36058v-.45173Z" transform="translate(-341.84851 -244.0083)"/><path class="cls-3" d="M473.20408,305.43561v6.71784c0,3.44374-.06529,6.88749-.06529,10.33123,0,1.69354,0,3.44374.06529,5.13729a3.58992,3.58992,0,0,0,3.55328,3.55673H483.996c2.36909-.16933,4.014-3.1051,5.13291-9.315h.52606l-.59209,9.315v.45163H465.11072v-.45163h.13133c3.09252,0,3.81667-2.25817,3.81667-4.573-.066,0-.066-3.16143-.066-7.45179V305.09665c.066-2.82248.066-5.25.066-6.77419v-1.35521a4.1384,4.1384,0,0,0-.78945-2.08853,3.571,3.571,0,0,0-2.56646-1.29856h-.59209v-.45164h9.9364c6.25106-.05633,12.96288-.16932,14.08176-.9596.19736,3.55642.39473,7.11315.65812,10.66987h-.52679c-.39472-2.14549-1.51361-9.08931-5.46161-9.25863H473.20408v11.85545Z" transform="translate(-341.84851 -244.0083)"/><path class="cls-3" d="M481.73542,308.28635h-.202c-1.167,3.77037-4.0846,3.53493-4.0846,3.53493v.15s2.91757-.22872,4.0846,3.54165h.202l-.08977-3.61327Z" transform="translate(-341.84851 -244.0083)"/></svg>