<svg id="레이어_1" data-name="레이어 1" xmlns="http://www.w3.org/2000/svg" viewBox="0 0 377.92212 244.4443"><defs><style>.cls-1{fill:#1c2934;}</style></defs><circle class="cls-1" cx="11.89936" cy="166.59997" r="11.89936"/><circle class="cls-1" cx="172.4206" cy="163.65866" r="10.8426"/><path class="cls-1" d="M404.89806,207.18765H325.08049v-1.1641H327.059c7.69577-.43644,11.21391-4.94763,11.21391-9.74924V118.86125c0-5.52928-4.17763-9.74924-13.1924-9.74924v-1.1641H365.099v1.1641h-.44008c-8.13584,0-12.5329,4.36517-12.5329,9.458v87.45353H387.5268c12.75355,0,16.49111-18.4804,17.81011-24.00967H407.096Z" transform="translate(-231.91918 -107.35329)"/><path class="cls-1" d="M430.41409,134.04384c0-5.53009-3.22246-9.75-10.17705-9.75v-1.30931h30.86872v1.30931c-6.44493,0-10.00591,4.07475-10.00591,9.45882v60.53321c0,9.458,6.61419,18.77081,16.11233,23.42721a34.65636,34.65636,0,0,0,14.9266,3.34709c18.82608,0,30.52832-12.07744,31.20723-27.502V133.89782a10.3991,10.3991,0,0,0-2.03485-6.25694c-2.03484-2.61943-4.58028-3.34709-8.14126-3.34709v-1.30931h21.71v1.30931c-3.39267,0-6.10642.72766-8.14127,3.34709-1.86653,2.3282-2.03484,5.09284-2.03484,7.85747v55.58558a40.95577,40.95577,0,0,1-1.35782,11.93223c-3.22247,9.45882-11.70224,16.44342-22.72746,18.48039a76.46841,76.46841,0,0,1-11.36373.87288,121.582,121.582,0,0,1-12.21284-.87288c-5.766-.58245-11.36278-2.183-14.416-4.51119a26.28321,26.28321,0,0,1-12.2119-22.55434Z" transform="translate(-231.91918 -107.35329)"/><path class="cls-1" d="M240.6557,229.354a8.53053,8.53053,0,0,0-6.44493-3.20189l-.1702-.1452h-1.35593v-1.1641h18.82608l40.02741,84.54287c11.36373-28.22963,22.55915-56.31324,33.92287-84.54287h20.69262v1.1641c-6.44493,0-10.0078,4.22-10.0078,9.458v77.8495a8.60953,8.60953,0,0,0,1.86654,5.6753c1.52613,2.3282,4.06968,3.4923,7.46235,3.63751h.67891v1.1641H315.2849v-1.1641H316.811a8.83687,8.83687,0,0,0,6.61513-3.3471,10.71429,10.71429,0,0,0,2.03484-6.25693V229.64444l-32.90545,81.92345-4.9188,12.22346h-1.69444v-.29123l-41.72563-88.18038A38.17074,38.17074,0,0,0,240.6557,229.354Zm12.898,93.26716c-3.39422-.138-5.7821-1.3024-7.47921-3.631a10.52215,10.52215,0,0,1-1.855-5.09145V301.80166h-1.51957v12.53127a10.26239,10.26239,0,0,1-2.05231,4.95318c-1.34191,2.03268-3.55213,3.05889-6.6109,3.33508H232.675v1.16437h21.54969v-1.16437Z" transform="translate(-231.91918 -107.35329)"/><path class="cls-1" d="M369.72262,313.46046a12.44265,12.44265,0,0,0-.84911,3.78272c0,3.4923,2.71376,5.38407,8.31147,5.67529v1.1641H352.93139v-1.1641c5.766,0,11.53393-2.61942,14.07748-7.71226,3.22246-7.56625,35.95772-83.96042,35.95772-85.12452-1.86653-2.47422-5.59771-3.92874-8.82018-4.07475v-1.1641h28.66368v1.1641c-5.25731,0-7.294,1.01889-7.294,3.34709a3.474,3.474,0,0,0,.1702,1.30931l30.70041,79.59524,1.01742,2.91066a5.18624,5.18624,0,0,1,.16831,1.60053c0,4.36518-3.39077,8.0035-8.14126,9.1676a9.7332,9.7332,0,0,1-2.88207.29041,12.38436,12.38436,0,0,1-8.65-3.34628c-9.15868-9.89526-18.65777-20.37216-27.98666-30.41262-2.88206-3.20107-9.15868-10.18567-14.9247-10.18567-.50871,0-.84911.146-1.18762.146C379.05151,291.48777,374.301,302.54632,369.72262,313.46046Zm14.5862-34.63258c.33851,0,.67891-.14521,1.18762-.14521,5.59582,0,11.36373,5.8205,14.416,9.16759,3.73118,4.074,8.31147,8.87637,12.21284,13.09552,5.93622,6.54816,11.02333,11.787,13.22838,14.40645l3.22246,3.34628c2.37525,2.76464,4.58029,4.07476,6.27662,4.07476,1.35593,0,2.37335-1.0189,2.37335-2.91066a12.64125,12.64125,0,0,0-1.01742-4.22c-.33851-.87288-.677-1.89177-1.18573-3.05587-10.178-26.48307-19.84539-54.13025-30.87061-80.32291l-19.505,46.12757Z" transform="translate(-231.91918 -107.35329)"/><path class="cls-1" d="M475.213,340.28957c0,4.94682,3.39267,9.3128,9.6674,9.3128h.3404v1.1641H454.35205v-1.1641h.33851c6.61513,0,9.6674-4.51119,9.8376-9.604V262.44007c0-5.38406-3.22247-9.74924-10.17611-9.74924v-1.1641H491.8359a45.46145,45.46145,0,0,1,11.02333,1.30931c13.40046,3.4923,23.23806,13.09633,23.23806,24.59212,0,6.69338-3.39267,12.80511-8.82018,17.31549-8.31146,7.13062-15.944,6.54816-26.29032,8.58513-4.7486.87369-9.15868,2.76545-11.02333,6.8394a23.27669,23.27669,0,0,1,8.81829-2.47341h1.69633c5.76791,0,11.53393,2.037,14.58619,5.38406,5.59771,6.25694,9.49909,14.55085,14.7564,21.68147,3.22246,4.6564,10.0078,14.98728,17.64035,14.98728.50871,0,.84722-.14521,1.35593-.14521v1.1641a33.60041,33.60041,0,0,1-5.25731.43644c-12.21284,0-19.84539-7.421-26.12012-16.87986-4.23989-6.69337-8.82018-13.24154-13.23026-19.93491a10.78725,10.78725,0,0,0-9.15869-4.36517,15.39244,15.39244,0,0,0-6.10642,1.30931c.3404-3.20108,2.37524-5.23805,5.2592-6.69338,5.59582-2.76463,12.211-3.4923,17.63846-6.69337,7.63255-4.366,12.72155-11.93223,12.72155-20.51737,0-13.53276-12.72155-24.59212-28.32517-24.59212H475.213Z" transform="translate(-231.91918 -107.35329)"/><path class="cls-1" d="M566.45753,256.56477v17.31548c0,8.87636-.16831,17.75273-.16831,26.62909,0,4.36518,0,8.87637.16831,13.24154.1702,4.80161,3.39267,8.73116,9.15869,9.16759H594.274c6.10642-.43643,10.34631-8.00349,13.23026-24.00966h1.35593l-1.52613,24.00966v1.1641H545.59661v-1.1641h.33851c7.97106,0,9.83759-5.8205,9.83759-11.787-.1702,0-.1702-8.1487-.1702-19.20724V255.69108c.1702-7.275.1702-13.53195.1702-17.46069v-3.49311a10.6669,10.6669,0,0,0-2.03484-5.38325,9.20437,9.20437,0,0,0-6.61513-3.34709h-1.52613v-1.1641H571.208c16.11233-.14521,33.41228-.43644,36.29623-2.47341.50871,9.16678,1.01742,18.33437,1.69633,27.502h-1.35782c-1.01742-5.53008-3.90138-23.428-14.07748-23.86445H566.45753v29.1025" transform="translate(-231.91918 -107.35329)"/><path class="cls-1" d="M566.45753,256.56477v17.31548c0,8.87636-.16831,17.75273-.16831,26.62909,0,4.36518,0,8.87637.16831,13.24154.1702,4.80161,3.39267,8.73116,9.15869,9.16759H594.274c6.10642-.43643,10.34631-8.00349,13.23026-24.00966h1.35593l-1.52613,24.00966v1.1641H545.59661v-1.1641h.33851c7.97106,0,9.83759-5.8205,9.83759-11.787-.1702,0-.1702-8.1487-.1702-19.20724V255.69108c.1702-7.275.1702-13.53195.1702-17.46069v-3.49311a10.6669,10.6669,0,0,0-2.03484-5.38325,9.20437,9.20437,0,0,0-6.61513-3.34709h-1.52613v-1.1641H571.208c16.11233-.14521,33.41228-.43644,36.29623-2.47341.50871,9.16678,1.01742,18.33437,1.69633,27.502h-1.35782c-1.01742-5.53008-3.90138-23.428-14.07748-23.86445H566.45753v30.64488" transform="translate(-231.91918 -107.35329)"/><path class="cls-1" d="M588.44736,263.91266h-.52058c-3.00805,9.71826-10.52818,9.1114-10.52818,9.1114v.38655s7.52013-.58953,10.52818,9.12873h.52058l-.2314-9.31334Z" transform="translate(-231.91918 -107.35329)"/><path class="cls-1" d="M405.44246,207.78225h-80.9567v-2.35318h2.57295c7.8292-.44508,10.61933-5.21008,10.61933-9.15487V118.86134c0-5.73239-4.70925-9.15458-12.59767-9.15458h-.59461v-2.35347h41.208v2.35347H364.659c-8.24728,0-11.93861,4.45172-11.93861,8.86337v86.85894H387.527c11.72609,0,15.5893-16.5326,17.04388-22.75653l.29614-1.25338h2.87781ZM388.36025,206.593h15.99287l2.09448-23.98465h-.6399l-.07839.33475C404.24976,189.27391,400.37319,205.85732,388.36025,206.593Zm-60.89623,0h24.06711v-88.0229c0-4.799,3.7343-9.63973,12.04082-10.02762H326.262c7.91921.34027,12.60523,4.14309,12.60523,10.31883V196.2742C338.86726,200.67308,335.871,205.96939,327.464,206.593Z" transform="translate(-231.91918 -107.35329)"/><path class="cls-1" d="M469.25482,222.96391a116.10992,116.10992,0,0,1-11.75687-.82252l-.51679-.05342c-6.23874-.63-11.74061-2.361-14.716-4.6297a26.9635,26.9635,0,0,1-12.44554-23.02712V134.04388c0-5.81833-3.49275-9.15546-9.58283-9.15546h-.59461v-2.49863h32.05832v2.49863h-.59461c-5.7173,0-9.41153,3.47939-9.41153,8.86425v60.533c0,9.066,6.34152,18.2662,15.77976,22.89328a34.29058,34.29058,0,0,0,14.66487,3.2866c17.6019,0,29.904-10.82372,30.613-26.93359l-.00058-59.63414a9.755,9.755,0,0,0-1.90983-5.89237c-1.7426-2.24313-3.894-3.11705-7.67184-3.11705h-.59461v-2.49863h22.89938v2.49863H514.88c-3.67971,0-5.97453.93227-7.67125,3.11705-1.76466,2.20075-1.91041,4.79984-1.91041,7.493v55.5854a41.62231,41.62231,0,0,1-1.38316,12.1044c-3.32783,9.76922-11.99436,16.82468-23.18856,18.893A76.997,76.997,0,0,1,469.25482,222.96391Zm-48.42339-99.25454c6.38681.22211,10.17743,4.04961,10.17743,10.33451v60.38727A25.82848,25.82848,0,0,0,442.955,216.49029c2.83948,2.16359,8.116,3.80544,14.14691,4.41456l.518.05342a115.25688,115.25688,0,0,0,11.63492.81643c1.605,0,3.21228-.054,4.83932-.16346q-.96769.04354-1.95512.04355a35.49986,35.49986,0,0,1-15.18283-3.40506c-9.84239-4.82539-16.451-14.45438-16.451-23.964v-60.533c0-5.917,3.90618-9.80581,10.00614-10.04214V123.579H420.83143Zm72.933-.00261c3.79.097,6.13886,1.15263,8.01676,3.5691a10.968,10.968,0,0,1,2.15952,6.622v59.66027a28.5664,28.5664,0,0,1-8.99,19.97221,31.04611,31.04611,0,0,1-16.89232,7.71016q1.22289-.14589,2.4725-.33215c10.74475-1.9856,19.071-8.74724,22.25251-18.08415a40.56661,40.56661,0,0,0,1.32567-11.74032v-55.5854c0-2.79739.16723-5.737,2.16591-8.22957,1.84595-2.3764,4.26445-3.46052,8.01037-3.56184v-.128H493.7644Z" transform="translate(-231.91918 -107.35329)"/><path class="cls-1" d="M346.74814,324.38582H314.6904v-2.35318h2.09042c2.83775-.29208,4.79867-1.28038,6.16964-3.10921a10.09074,10.09074,0,0,0,1.91622-5.9002V232.72036L293.10741,311.7893l-5.06869,12.59652h-2.69083v-.75227l-41.669-88.05947a38.202,38.202,0,0,0-3.48868-5.85085l-.00406-.00465a7.937,7.937,0,0,0-6.00531-2.97275l-.20149-.01016-.15795-.13414h-1.73156v-2.35317h19.79743l.16143.34027,39.445,83.31423q8.26064-20.527,16.44463-40.98731,8.46533-21.12934,16.9713-42.29469l.14981-.3725h21.68868v2.35317h-.59461c-5.63019,0-9.41327,3.56184-9.41327,8.86338v77.84952a7.92934,7.92934,0,0,0,1.72575,5.29051l.04356.05864c1.37445,2.09623,3.72617,3.23,6.9907,3.36964l1.24787-.00058Zm-29.67059-1.18922H345.0247c-3.44628-.241-5.95711-1.535-7.4895-3.85044a9.21509,9.21509,0,0,1-1.98416-6.03173V235.46491c0-5.737,3.87947-9.67806,9.74368-10.02733H325.86311q-8.45139,20.99564-16.82032,41.92015-8.45576,21.10671-16.9533,42.25l-.50751,1.26064L251.1347,225.43758H234.28883l.1562.133a9.07257,9.07257,0,0,1,6.67888,3.41667,38.59621,38.59621,0,0,1,3.6234,6.06454L286.457,323.1966h.7781l4.76906-11.85093L324.90965,229.423l1.14624.22152v83.37869a11.2773,11.2773,0,0,1-2.14674,6.6034A9.33605,9.33605,0,0,1,317.07755,323.1966Zm-62.25849,1.1837H232.08053v-2.35375h1.95628c2.90975-.26508,4.92759-1.26935,6.11448-3.068l.03774-.0508a9.61329,9.61329,0,0,0,1.91622-4.63028V301.20713h2.70883v12.69146a9.94335,9.94335,0,0,0,1.75015,4.75425c1.57827,2.16533,3.80572,3.2416,7.00174,3.37371h1.25309Zm-20.49946-1.18922h18.76267a9.3609,9.3609,0,0,1-7.48834-3.85072,11.1592,11.1592,0,0,1-1.96674-5.39241l-.00232-11.5516h-.3304l-.01046,12.04633a10.97744,10.97744,0,0,1-2.15719,5.1973C239.75759,321.69469,237.529,322.85807,234.3196,323.19108Z" transform="translate(-231.91918 -107.35329)"/><path class="cls-1" d="M436.54905,324.82248a12.90728,12.90728,0,0,1-9.06777-3.51829c-4.20581-4.5426-8.54633-9.27769-12.74343-13.85687-5.01352-5.46876-10.19718-11.12393-15.26064-16.57382-2.71173-3.01108-9.001-9.99569-14.4895-9.99569a3.03068,3.03068,0,0,0-.60216.07316c-.05807.01133-.11671.02265-.17652.0331l-.08478.198c-4.59312,10.6954-9.34243,21.756-13.8467,32.49179a11.738,11.738,0,0,0-.80946,3.56939c0,3.14811,2.53463,4.81029,7.7479,5.08146l.56384.02932v2.32327h-25.4433v-2.35346h.5946c6.0808,0,11.27143-2.829,13.54592-7.38324.42215-.99382,1.40232-3.2869,2.77038-6.487,7.90179-18.4854,31.5874-73.89138,33.06579-78.24-1.91506-2.32356-5.45832-3.48867-8.19328-3.61265l-.5679-.02584v-2.32675H423.405v2.35317h-.59461c-5.888,0-6.69979,1.32277-6.69979,2.75239a2.95823,2.95823,0,0,0,.12949,1.0934l30.70129,79.59735,1.0243,2.92833a5.78814,5.78814,0,0,1,.2015,1.79689c0,4.569-3.45384,8.48536-8.59453,9.74483A10.21372,10.21372,0,0,1,436.54905,324.82248Zm-51.56134-45.13389c6.0175,0,12.319,6.99768,15.34716,10.36035,5.07972,5.4679,10.26453,11.12451,15.27922,16.59473,4.19709,4.57831,8.53646,9.312,12.72136,13.83393a11.70615,11.70615,0,0,0,8.2136,3.15566,9.19317,9.19317,0,0,0,2.71871-.26769c4.62041-1.1326,7.71016-4.58469,7.71016-8.59568a4.62727,4.62727,0,0,0-.14517-1.43513l-1.00746-2.87985-30.69374-79.5776a4.014,4.014,0,0,1-.2102-1.52339c0-3.05143,3.07814-3.78366,6.47158-3.91634H394.74125v.01422c3.01369.27321,6.72709,1.65608,8.70021,4.272l.11962.15881v.19917c0,.5859-4.02464,10.54239-33.22024,78.83928-1.36806,3.1995-2.34766,5.492-2.7849,6.518-2.36218,4.73248-7.51448,7.74762-13.61037,8.049l22.645-.01133c-5.51638-.40937-8.31174-2.505-8.31174-6.23351a12.6574,12.6574,0,0,1,.882-3.97905l.01336-.03368c4.50776-10.74592,9.26056-21.81411,13.85715-32.51763l.37686-.87827h.392a2.12646,2.12646,0,0,0,.35944-.0511A4.13176,4.13176,0,0,1,384.98771,279.68859Zm49.8652,43.67931c-1.96615,0-4.35562-1.52078-6.72825-4.28188l-3.1995-3.32115c-1.2107-1.43658-3.23608-3.60859-5.80091-6.35865-2.21-2.36972-4.71506-5.05562-7.43957-8.06118-1.71937-1.85931-3.57578-3.83708-5.43219-5.81572-2.30759-2.45885-4.69415-5.00161-6.77818-7.27756-2.02538-2.22049-8.18515-8.97457-13.97793-8.97457a3.0317,3.0317,0,0,0-.60274.07287,3.04455,3.04455,0,0,1-.58474.0723h-1.2136l1.03476-1.3341,20.02331-47.35408.547,1.299c7.36989,17.509,14.21949,35.8983,20.8438,53.682,3.27267,8.78527,6.65624,17.86959,10.034,26.65835.34492.78769.61958,1.53414.8623,2.19291.11091.30137.21717.58851.32285.86114a13.19845,13.19845,0,0,1,1.0574,4.43517C437.82072,321.95919,436.628,323.3679,434.85291,323.3679ZM385.49638,278.088c6.31771,0,12.744,7.04616,14.85591,9.36159,2.07822,2.26956,4.46188,4.80971,6.76715,7.26595,1.85873,1.98067,3.71688,3.96076,5.44264,5.82675,2.72277,3.00353,5.22488,5.68623,7.432,8.053,2.57586,2.76226,4.61111,4.94413,5.81426,6.374l3.196,3.31651c2.13455,2.48295,4.25807,3.89282,5.84853,3.89282,1.11373,0,1.7786-.86578,1.7786-2.316a12.27314,12.27314,0,0,0-.97669-4.0046c-.10859-.279-.21659-.57255-.3304-.88059-.23692-.6431-.50519-1.37242-.846-2.15255-3.39055-8.81954-6.77528-17.90676-10.04853-26.69465-6.45591-17.3319-13.12667-35.23982-20.28-52.3348l-18.729,44.29336C385.44586,278.08826,385.47083,278.088,385.49638,278.088Z" transform="translate(-231.91918 -107.35329)"/><path class="cls-1" d="M533.55959,351.79759c-13.50991,0-21.31995-9.163-26.6151-17.14579-2.63335-4.15645-5.4438-8.32538-8.16134-12.35727-1.66885-2.476-3.39519-5.03646-5.07043-7.57923a10.26118,10.26118,0,0,0-8.66188-4.0978,14.87988,14.87988,0,0,0-5.87292,1.26122l-.93256.40009.10743-1.0095c.32866-3.08889,2.15487-5.43132,5.58316-7.16114a53.14329,53.14329,0,0,1,8.12011-2.96,43.36471,43.36471,0,0,0,9.48354-3.71485c7.78507-4.45347,12.42928-11.93049,12.42928-20.00531,0-13.23235-12.43973-23.99743-27.73057-23.99743H475.8077v86.85894c0,4.33965,2.80523,8.71821,9.07242,8.71821h.93546v2.35346H453.75727v-2.35346h.93314c6.59294,0,9.09738-4.66425,9.24371-9.02916L463.93354,262.44c0-5.73239-3.58216-9.15458-9.58167-9.15458h-.5946v-2.35317H491.836a46.3043,46.3043,0,0,1,11.16516,1.32625c14.17362,3.694,23.69083,13.80809,23.69083,25.16952,0,6.61937-3.20879,12.93127-9.03525,17.77291-6.55985,5.62846-12.769,6.55085-19.95828,7.61929-2.10261.3124-4.27723.63555-6.59643,1.09195-4.646.855-7.82165,2.46379-9.6438,4.89652a25.48982,25.48982,0,0,1,7.26711-1.706l1.75247-.00262c6.0384,0,11.93629,2.18972,15.026,5.57823a88.56825,88.56825,0,0,1,8.79486,12.57619c1.89125,3.06334,3.84637,6.23119,6.00067,9.15313l.432.62539c3.39925,4.93455,9.72683,14.1199,16.72973,14.1199a3.25648,3.25648,0,0,0,.57777-.06416,4.37824,4.37824,0,0,1,.7781-.081h.59461v2.26781l-.50286.07839A33.92125,33.92125,0,0,1,533.55959,351.79759Zm-48.50875-42.3693a11.44175,11.44175,0,0,1,9.65135,4.62737c1.67581,2.543,3.39983,5.10062,5.06694,7.57429,2.72277,4.03857,5.53787,8.21476,8.173,12.375,5.44263,8.20489,12.74865,16.60344,25.6175,16.60344a31.3183,31.3183,0,0,0,4.04554-.26943c-.04645.002-.09465.00319-.144.00319-7.6277,0-14.18581-9.52012-17.70933-14.63438l-.41982-.60913c-2.17288-2.94662-4.14136-6.13567-6.04538-9.21962a86.3451,86.3451,0,0,0-8.66537-12.40344c-2.87142-3.149-8.42439-5.18627-14.14342-5.18627h-1.69615a24.85966,24.85966,0,0,0-6.14234,1.33642A14.98137,14.98137,0,0,1,485.05084,309.42829ZM455.5196,350.172h28.52145a9.59348,9.59348,0,0,1-9.42256-9.88245V252.24139h11.61982c15.94641,0,28.91979,11.29872,28.91979,25.18665,0,8.50684-4.86778,16.36972-13.02157,21.03368a44.23327,44.23327,0,0,1-9.73439,3.824q-.72292.21993-1.45284.4448c2.3134-.45351,4.47873-.7752,6.57437-1.08673,7.29614-1.08412,13.05931-1.94032,19.366-7.35131,5.557-4.61779,8.61311-10.6051,8.61311-16.86445,0-10.81182-9.1601-20.46346-22.79312-24.01659a45.12137,45.12137,0,0,0-10.87366-1.29H455.25714c6.11157.34608,9.86562,4.2331,9.86562,10.31854v77.55832C464.92533,345.91771,461.18812,349.8265,455.5196,350.172Z" transform="translate(-231.91918 -107.35329)"/><path class="cls-1" d="M607.92857,324.67731H545.00173v-2.35346h.93314c6.212,0,9.23559-3.65185,9.24314-11.16458a51.523,51.523,0,0,1-.14866-5.48067c-.02148-3.42132-.02148-8.20983-.02148-13.75438V255.69116c.17014-7.2822.17014-13.65392.17014-17.4608v-3.493a10.00866,10.00866,0,0,0-1.91738-5.0292,8.51631,8.51631,0,0,0-6.194-3.10921l-2.06487.00261v-2.35317H571.208c12.34915-.11149,33.02745-.29818,35.95288-2.36479l.87739-.61957.05923,1.0725c.50054,9.01609,1.01734,18.33152,1.69614,27.491l.04762.63845h-2.494l-.20381-1.11286c-1.10967-6.113-4.05774-22.35151-13.40365-22.75218l-26.68768.00058v28.5078H565.863V225.43758H547.36681a9.64119,9.64119,0,0,1,6.84031,3.55139,11.22766,11.22766,0,0,1,2.15778,5.69494l.00232,3.54645c0,3.81211,0,10.19253-.17014,17.47474v36.21912c0,8.8776,0,16.66238.0993,18.61257h.07084v.59461c0,7.84836-3.20357,12.00074-9.52418,12.3567h28.48254c-5.58548-.53858-9.271-4.32427-9.462-9.7161-.169-4.37507-.169-8.893-.169-13.26254,0-4.441.043-8.95513.08419-13.32033.04123-4.36259.0842-8.87354.0842-13.309V256.56479h1.18922v17.31534c0,4.441-.043,8.95512-.0842,13.32033-.04123,4.36258-.0842,8.87353-.0842,13.309,0,4.35823,0,8.86482.16782,13.21841.17187,4.84077,3.55138,8.21477,8.60962,8.59772l18.61286-.00174c5.79742-.41576,9.829-7.89017,12.64471-23.52041l.08826-.48921h2.48644l-1.56607,24.642Zm-13.34443-1.18921h12.15521v-.56964l1.4871-23.415H608C605.11405,315.199,600.84205,322.83861,594.58414,323.4881Zm13.75438-74.21133h.2224c-.63468-8.663-1.12709-17.44977-1.60091-25.97723-4.26794,1.6163-17.87657,1.95629-33.11863,2.11278h19.924c10.32028.44189,13.392,17.35947,14.54815,23.72828Z" transform="translate(-231.91918 -107.35329)"/><path class="cls-1" d="M607.92857,324.67731H545.00173v-2.35346h.93314c6.212,0,9.23559-3.65185,9.24314-11.16458a51.523,51.523,0,0,1-.14866-5.48067c-.02148-3.42132-.02148-8.20983-.02148-13.75438V255.69116c.17014-7.2822.17014-13.65392.17014-17.4608v-3.493a10.00866,10.00866,0,0,0-1.91738-5.0292,8.51631,8.51631,0,0,0-6.194-3.10921l-2.06487.00261v-2.35317H571.208c12.34915-.11149,33.02745-.29818,35.95288-2.36479l.87739-.61957.05923,1.0725c.50054,9.01609,1.01734,18.33152,1.69614,27.491l.04762.63845h-2.494l-.20381-1.11286c-1.10967-6.113-4.05774-22.35151-13.40365-22.75218l-26.68768.00058v47.2786c0,4.441-.043,8.95512-.0842,13.32033-.04123,4.36258-.0842,8.87353-.0842,13.309,0,4.35823,0,8.86482.16782,13.21841.17187,4.84077,3.55138,8.21477,8.60962,8.59772l18.61286-.00174c5.79742-.41576,9.829-7.89017,12.64471-23.52041l.08826-.48921h2.48644l-1.56607,24.642Zm-13.34443-1.18921h12.15521v-.56964l1.4871-23.415H608C605.11405,315.199,600.84205,322.83861,594.58414,323.4881Zm-47.7411,0h28.48254c-5.58548-.53858-9.271-4.32427-9.462-9.7161-.169-4.37507-.169-8.893-.169-13.26254,0-4.441.043-8.95513.08419-13.32033.04123-4.36259.0842-8.87354.0842-13.309V225.43758H547.36681a9.64119,9.64119,0,0,1,6.84031,3.55139,11.22766,11.22766,0,0,1,2.15778,5.69494l.00232,3.54645c0,3.81211,0,10.19253-.17014,17.47474v36.21912c0,8.8776,0,16.66238.0993,18.61257h.07084v.59461C556.36722,318.97976,553.16365,323.13214,546.843,323.4881Zm61.49548-74.21133h.2224c-.63468-8.663-1.12709-17.44977-1.60091-25.97723-4.26794,1.6163-17.87657,1.95629-33.11863,2.11278h19.924c10.32028.44189,13.392,17.35947,14.54815,23.72828Z" transform="translate(-231.91918 -107.35329)"/><path class="cls-1" d="M589.05731,283.134h-1.569l-.12949-.41866c-2.83484-9.1601-9.843-8.71647-9.91381-8.71183l-.64106.05023v-1.67436l.64222.052c.28686.02,7.09.42621,9.91265-8.6947l.12949-.41866h1.569l-.24679,9.92281Zm-8.83841-9.91381c2.32966.68374,5.55239,2.4934,7.58242,7.24562l-.18-7.225.18-7.2552C585.77129,270.73579,582.54914,272.54081,580.2189,273.2202Z" transform="translate(-231.91918 -107.35329)"/></svg>