<svg id="레이어_1" data-name="레이어 1" xmlns="http://www.w3.org/2000/svg" viewBox="0 0 277.45391 304.34939"><defs><style>.cls-1{fill:#6c6d78;}</style></defs><path class="cls-1" d="M513.66587,269.86352c-2.98088-40.60865-5.39736-43.02513-46.006-46.006,40.60865-2.98088,43.02513-5.39735,46.006-46.006,2.98087,40.60866,5.39735,43.02513,46.006,46.006C519.06322,226.83839,516.64674,229.25487,513.66587,269.86352Z" transform="translate(-282.21796 -177.03545)"/><path class="cls-1" d="M541.18742,424.99167c-59.21677,32.14741-135.8044,5.55142-171.06662-59.40293s-15.8453-143.669,43.37147-175.81641a111.743,111.743,0,0,1,27.46343-10.37276c-29.66086-5.46114-60.45765-1.63915-88.02879,13.32859C284.24261,230.01528,261.72,321.317,302.62039,396.65705s129.73537,106.18831,198.41967,68.90118a130.8004,130.8004,0,0,0,48.31773-45.60668C546.69939,421.70367,544.03141,423.44773,541.18742,424.99167Z" transform="translate(-282.21796 -177.03545)"/></svg>