<svg id="레이어_1" data-name="레이어 1" xmlns="http://www.w3.org/2000/svg" viewBox="0 0 195.82031 195.91846"><defs><style>.cls-1{fill:#6c6d78;}</style></defs><circle class="cls-1" cx="97.20413" cy="98.43482" r="43.30435"/><circle class="cls-1" cx="97.20413" cy="98.43482" r="43.30435"/><path class="cls-1" d="M339.13184,230.06592a4.0002,4.0002,0,0,1-4-4V203.89209a4,4,0,0,1,8,0v22.17383A4.0002,4.0002,0,0,1,339.13184,230.06592Z" transform="translate(-241.92773 -199.89209)"/><path class="cls-1" d="M287.36816,250.33789a3.98882,3.98882,0,0,1-2.82861-1.17139l-15.67969-15.67968a4.00027,4.00027,0,0,1,5.65723-5.65723l15.67969,15.67969a4,4,0,0,1-2.82862,6.82861Z" transform="translate(-241.92773 -199.89209)"/><path class="cls-1" d="M339.13184,395.81055a4.0002,4.0002,0,0,1-4-4V369.63672a4,4,0,1,1,8,0v22.17383A4.0002,4.0002,0,0,1,339.13184,395.81055Z" transform="translate(-241.92773 -199.89209)"/><path class="cls-1" d="M271.68848,369.044a3.99976,3.99976,0,0,1-2.82813-6.82813L284.54,346.53711a3.99957,3.99957,0,1,1,5.65625,5.65625L274.5166,367.87207A3.98621,3.98621,0,0,1,271.68848,369.044Z" transform="translate(-241.92773 -199.89209)"/><path class="cls-1" d="M268.10156,302.32715H245.92773a4,4,0,1,1,0-8h22.17383a4,4,0,0,1,0,8Z" transform="translate(-241.92773 -199.89209)"/><path class="cls-1" d="M392.30762,250.33789a4,4,0,0,1-2.82862-6.82861l15.6792-15.67969a4.00027,4.00027,0,0,1,5.65723,5.65723l-15.6792,15.67968A3.98882,3.98882,0,0,1,392.30762,250.33789Z" transform="translate(-241.92773 -199.89209)"/><path class="cls-1" d="M433.74805,302.32715H411.57373a4,4,0,0,1,0-8h22.17432a4,4,0,0,1,0,8Z" transform="translate(-241.92773 -199.89209)"/><path class="cls-1" d="M407.98682,369.99512a3.98733,3.98733,0,0,1-2.82862-1.17188L389.479,353.14453a3.99992,3.99992,0,0,1,5.65723-5.65625l15.6792,15.67871a4,4,0,0,1-2.82861,6.82813Z" transform="translate(-241.92773 -199.89209)"/></svg>